<?xml version="1.0" encoding="utf-8"?>
<!-- Generator: Adobe Illustrator 23.0.5, SVG Export Plug-In . SVG Version: 6.00 Build 0)  -->
<svg version="1.1" id="Layer_1" xmlns="http://www.w3.org/2000/svg" xmlns:xlink="http://www.w3.org/1999/xlink" x="0px" y="0px"
	 width="512px" height="512px" viewBox="0 0 512 512" style="enable-background:new 0 0 512 512;" xml:space="preserve">
<style type="text/css">
	.st0{fill:#020202;}
	.st1{fill:#BC1B1B;}
</style>
<g>
	<g>
		<path class="st0" d="M386.7,292c15,13.8,22,35.3,18.4,55.3c-5,25.3-9.9,50.6-15.2,75.8c-3,13-20.5,18.9-30.8,10.6
			c-14.2-11.9-28.2-24.1-42.3-36.2c-4.7-4-11.6-4.2-16.6-0.5c-11.7,8.7-25.7,14.2-40.3,15c-17.4,1.2-34.7-4.6-48.7-14.8
			c-5-3.6-11.7-3.4-16.4,0.6c-9.1,7.7-17.9,16.1-27,23.7c-5.8,4.7-10.6,10.8-17.5,14c-10.6,4.6-24.3-2.2-26.7-13.7
			c-5.5-24.6-11.2-49.2-16.5-73.9 M204.6,97c12.4-17.9,25.5-36.3,43.1-49.4c4.7-3.5,11.1-3.5,15.8,0c17.3,12.8,30.2,30.8,42.4,48.4
			 M259.1,96.1"/>
	</g>
	<path class="st0" d="M198.7,442.6c-0.2-7.3,8.8-12.3,14.9-8.4c25.9,13.3,58,13.3,83.9,0c5.9-3.6,14.7,0.7,15,7.8
		c0.1,15.4,0.1,30.9,0,46.3c0.1,7.5-9.8,12.3-15.7,7.6c0,0-0.1-0.1-0.1-0.1c-6.6-5.8-16.9-3.9-20.8,3.9c-3.9,7.9-7.8,15.7-11.8,23.5
		c-3.3,6.3-13.5,6.3-16.9,0.1c-4.1-7.8-7.9-15.7-11.9-23.6c-3.9-7.9-14.2-9.7-20.8-3.9c0,0-0.1,0.1-0.1,0.1
		c-5.8,4.7-15.8-0.2-15.7-7.6C198.6,473.1,198.6,457.8,198.7,442.6z"/>
</g>
<path class="st1" d="M293.7,244.7h-82.1c-22,0-39.9-17.9-39.9-39.9v0c0-22,17.9-39.9,39.9-39.9h82.1c22,0,39.9,17.9,39.9,39.9v0
	C333.5,226.9,315.7,244.7,293.7,244.7z"/>
</svg>
